<svg width="320" height="320" viewBox="0 0 320 320" fill="none" xmlns="http://www.w3.org/2000/svg">
<rect width="320" height="320" fill="white"/>
<rect x="77" y="77" width="166" height="221" rx="12" stroke="#D9D9D9" stroke-width="8"/>
<rect x="92" y="95" width="136" height="40" fill="#D9D9D9"/>
<rect x="98" y="148" width="41" height="24" rx="12" fill="#D9D9D9"/>
<rect x="146" y="148" width="41" height="24" rx="12" fill="#D9D9D9"/>
<rect x="204" y="148" width="29" height="24" rx="8" fill="#D9D9D9"/>
<rect x="87" y="188" width="29" height="29" rx="8" fill="#D9D9D9"/>
<rect x="125" y="188" width="29" height="29" rx="8" fill="#D9D9D9"/>
<rect x="162" y="188" width="29" height="29" rx="8" fill="#D9D9D9"/>
<rect x="87" y="223" width="29" height="29" rx="8" fill="#D9D9D9"/>
<rect x="125" y="223" width="29" height="29" rx="8" fill="#D9D9D9"/>
<rect x="162" y="223" width="29" height="29" rx="8" fill="#D9D9D9"/>
<rect x="87" y="258" width="29" height="29" rx="8" fill="#D9D9D9"/>
<rect x="125" y="258" width="29" height="29" rx="8" fill="#D9D9D9"/>
<rect x="163" y="258" width="29" height="29" rx="8" fill="#D9D9D9"/>
<rect x="201" y="185" width="34" height="24" rx="4" fill="#D9D9D9"/>
<rect x="201" y="263" width="34" height="24" rx="4" fill="#D9D9D9"/>
<rect x="201" y="224" width="34" height="24" rx="4" fill="#D9D9D9"/>
<path d="M257 62C257 85.1495 240.632 103 221.5 103C202.368 103 186 85.1495 186 62C186 38.8505 202.368 21 221.5 21C240.632 21 257 38.8505 257 62Z" stroke="#D9D9D9" stroke-width="8"/>
<path d="M278 62C278 85.0505 261.272 103 241.5 103C221.728 103 205 85.0505 205 62C205 38.9495 221.728 21 241.5 21C261.272 21 278 38.9495 278 62Z" stroke="#D9D9D9" stroke-width="8"/>
<line x1="183.095" y1="53.0023" x2="204.095" y2="54.0023" stroke="#D9D9D9" stroke-width="4"/>
<line x1="193.095" y1="35.0023" x2="213.072" y2="35.9536" stroke="#D9D9D9" stroke-width="4"/>
<line x1="253.095" y1="81.0023" x2="273.072" y2="81.9536" stroke="#D9D9D9" stroke-width="4"/>
<line x1="261.095" y1="60.0023" x2="282.095" y2="61.0023" stroke="#D9D9D9" stroke-width="4"/>
<line x1="252.095" y1="39.0023" x2="272.072" y2="39.9536" stroke="#D9D9D9" stroke-width="4"/>
<path d="M235.525 79.6364V43.2727H237.855V79.6364H235.525ZM241.704 55.2756C241.591 54.1297 241.103 53.2396 240.241 52.6051C239.379 51.9706 238.21 51.6534 236.733 51.6534C235.729 51.6534 234.881 51.7955 234.19 52.0795C233.499 52.3542 232.968 52.7377 232.599 53.2301C232.239 53.7225 232.059 54.2812 232.059 54.9062C232.04 55.4271 232.149 55.8816 232.386 56.2699C232.632 56.6581 232.968 56.9943 233.395 57.2784C233.821 57.553 234.313 57.7945 234.872 58.0028C235.431 58.2017 236.027 58.3722 236.662 58.5142L239.275 59.1392C240.544 59.4233 241.709 59.8021 242.77 60.2756C243.83 60.7491 244.749 61.3314 245.525 62.0227C246.302 62.714 246.903 63.5284 247.329 64.4659C247.765 65.4034 247.987 66.4782 247.997 67.6903C247.987 69.4706 247.533 71.0142 246.633 72.321C245.743 73.6184 244.455 74.6269 242.77 75.3466C241.093 76.0568 239.072 76.4119 236.704 76.4119C234.356 76.4119 232.31 76.0521 230.568 75.3324C228.835 74.6127 227.481 73.5473 226.505 72.1364C225.539 70.7159 225.033 68.9593 224.985 66.8665H230.937C231.003 67.8419 231.283 68.6562 231.775 69.3097C232.277 69.9536 232.945 70.4413 233.778 70.7727C234.621 71.0947 235.573 71.2557 236.633 71.2557C237.675 71.2557 238.579 71.1042 239.346 70.8011C240.123 70.4981 240.724 70.0767 241.15 69.5369C241.576 68.9972 241.789 68.3769 241.789 67.6761C241.789 67.0227 241.595 66.4735 241.207 66.0284C240.828 65.5833 240.27 65.2045 239.531 64.892C238.802 64.5795 237.907 64.2955 236.846 64.0398L233.679 63.2443C231.226 62.6477 229.289 61.715 227.869 60.446C226.449 59.1771 225.743 57.4678 225.752 55.3182C225.743 53.5568 226.212 52.018 227.159 50.7017C228.115 49.3854 229.427 48.358 231.093 47.6193C232.76 46.8807 234.654 46.5114 236.775 46.5114C238.934 46.5114 240.819 46.8807 242.429 47.6193C244.048 48.358 245.307 49.3854 246.207 50.7017C247.107 52.018 247.571 53.5426 247.599 55.2756H241.704Z" fill="#D9D9D9"/>
</svg>
