<svg width="320" height="320" viewBox="0 0 320 320" fill="none" xmlns="http://www.w3.org/2000/svg">
<rect width="320" height="320" fill="white"/>
<rect x="77" y="49" width="166" height="221" rx="12" stroke="#D9D9D9" stroke-width="8"/>
<rect x="92" y="67" width="136" height="40" fill="#D9D9D9"/>
<rect x="98" y="120" width="41" height="24" rx="12" fill="#D9D9D9"/>
<rect x="146" y="120" width="41" height="24" rx="12" fill="#D9D9D9"/>
<rect x="204" y="120" width="29" height="24" rx="8" fill="#D9D9D9"/>
<rect x="87" y="160" width="29" height="29" rx="8" fill="#D9D9D9"/>
<rect x="125" y="160" width="29" height="29" rx="8" fill="#D9D9D9"/>
<rect x="162" y="160" width="29" height="29" rx="8" fill="#D9D9D9"/>
<rect x="87" y="195" width="29" height="29" rx="8" fill="#D9D9D9"/>
<rect x="125" y="195" width="29" height="29" rx="8" fill="#D9D9D9"/>
<rect x="162" y="195" width="29" height="29" rx="8" fill="#D9D9D9"/>
<rect x="87" y="230" width="29" height="29" rx="8" fill="#D9D9D9"/>
<rect x="125" y="230" width="29" height="29" rx="8" fill="#D9D9D9"/>
<rect x="163" y="230" width="29" height="29" rx="8" fill="#D9D9D9"/>
<rect x="201" y="157" width="34" height="24" rx="4" fill="#D9D9D9"/>
<rect x="201" y="235" width="34" height="24" rx="4" fill="#D9D9D9"/>
<rect x="201" y="196" width="34" height="24" rx="4" fill="#D9D9D9"/>
</svg>
