<svg width="60" height="60" viewBox="0 0 60 60" fill="none" xmlns="http://www.w3.org/2000/svg">
<path d="M4.61365 35.8615C4.61365 38.0575 6.70568 40.229 8.1543 41.6776C9.25443 42.7777 10.9453 43.8059 12.5188 43.8059C16.6082 43.8059 14.9329 37.138 14.8531 34.665C14.6803 29.3081 13.2642 24.0812 13.2642 18.7369C13.2642 17.257 14.0415 16.3558 15.0689 15.4219C15.5504 14.9841 16.5939 14.4999 17.2364 14.4999C18.1637 14.4999 18.9336 14.8023 19.7963 14.853C21.1289 14.9314 22.4435 16.2491 23.2879 17.1873C23.7317 17.6805 23.9735 18.5363 24.3962 19.0998C24.888 19.7556 25.6222 20.7267 25.6222 21.5616" stroke="#131313" stroke-width="1.85369" stroke-linecap="round"/>
<path d="M10.6161 28.7999C13.1713 28.7999 15.56 28.2703 18.0309 28.2703" stroke="#131313" stroke-width="1.85369" stroke-linecap="round"/>
<path d="M25.2691 26.1519C24.7159 26.221 23.7307 27.1607 23.3271 27.5642C22.6605 28.2308 22.4537 29.4204 22.2581 30.3006C21.7473 32.5992 21.5617 34.8285 21.5617 37.2348C21.5617 37.8923 22.0053 39.2849 22.4052 39.7849C22.8919 40.3932 22.9167 41.3239 23.5919 41.8641C24.9407 42.9431 26.2499 43.4138 27.7407 44.1592" stroke="#131313" stroke-width="1.85369" stroke-linecap="round"/>
<path d="M49.4554 27.0344C49.4842 27.2648 51.78 27.9664 52.182 28.3683C52.8402 29.0265 53.6629 30.0747 54.0847 30.9184C55.0564 32.8617 55.0374 34.4921 54.9282 36.5677C54.8323 38.3899 53.7625 39.7939 52.947 41.3343C52.6377 41.9186 52.0795 42.269 51.7504 42.8448C51.5838 43.1364 50.5723 44.5337 51.2208 43.4529" stroke="#131313" stroke-width="1.85369" stroke-linecap="round"/>
<path d="M24.3864 38.3332C25.0948 38.3332 26.196 36.7596 26.6815 36.2049C27.1692 35.6474 27.4382 34.8041 27.8388 34.1746C28.2581 33.5156 28.4601 32.7331 28.8784 32.0757C29.1582 31.636 29.5992 30.98 29.6925 30.4672C29.7378 30.2178 29.9222 29.6676 30.124 29.5061C30.3158 29.3526 30.1578 29.0107 30.2515 28.7999C30.3755 28.5211 30.3888 28.3316 30.3888 28.0251C30.3888 27.4399 30.3888 29.1955 30.3888 29.7807C30.3888 32.0757 30.3888 34.3708 30.3888 36.6658C30.3888 37.7688 31.5583 39.23 32.7624 38.2449C34.3471 36.9483 34.3436 35.68 34.8907 33.9294C35.2856 32.6657 35.0337 31.3726 35.5968 30.1338C35.8219 29.6387 35.8617 28.9106 35.8617 28.3585C35.8617 27.7401 36.1413 28.5937 36.1755 28.7607C36.3004 29.3714 36.3913 29.942 36.3913 30.5653C36.3913 32.7134 35.9301 36.2729 38.3332 37.4112C39.0917 37.7705 39.3502 37.5673 40.0104 37.2739C40.4503 37.0784 41.523 35.8519 41.766 35.4006C42.2925 34.4229 42.724 33.2024 43.1783 32.164C43.4524 31.5376 43.313 30.3351 43.7178 29.8493C43.9572 29.562 44.1033 28.4805 44.2964 29.2314C44.5032 30.0356 44.5122 30.8035 44.5122 31.6246C44.5122 32.8896 44.8653 34.0967 44.8653 35.332C44.8653 36.4938 46.0427 37.627 47.1603 37.627C48.6879 37.627 49.0081 37.1093 49.6319 35.8616" stroke="#131313" stroke-width="1.85369" stroke-linecap="round"/>
<path d="M30.5653 23.1506C27.5792 23.1506 29.4701 27.6705 31.4087 26.3283C32.4623 25.5989 32.6258 23.3271 31.0949 23.3271C30.1938 23.3271 29.8917 23.8116 29.7218 24.661C29.6242 25.1491 30.033 25.4529 30.428 25.6222C31.2363 25.9686 31.5423 26.0061 31.8697 25.0239C32.1666 24.1332 30.9268 23.383 30.7418 23.9842C30.6876 24.1603 30.3806 25.1943 30.6732 25.2593C31.1494 25.3651 31.6049 24.8264 31.6049 24.3864C31.6049 22.9262 29.5987 24.407 30.4966 25.5045C30.8732 25.9648 32.4463 23.532 30.477 24.1314C29.1037 24.5493 29.9361 26.0239 30.6339 25.171C31.3021 24.3544 29.5256 24.0155 29.5256 25.1121C29.5256 26.3661 30.7976 26.1135 30.5555 25.0239C30.4802 24.6853 30.3887 25.3897 30.3887 25.4456C30.3887 25.8293 30.6608 25.8942 30.9184 26.1518" stroke="#FFBB38" stroke-width="1.85369" stroke-linecap="round"/>
<path d="M36.3912 23.5037C35.4338 23.6234 34.5801 25.187 35.0671 26.0636C35.8699 27.5086 37.627 26.3299 37.627 25.0141C37.627 23.6414 36.2689 22.5887 35.3319 23.9941C34.9111 24.6254 34.7283 25.5818 35.3319 26.1518C36.0828 26.861 37.2739 25.416 37.2739 24.7003C37.2739 22.8976 34.6549 24.3118 35.7635 26.0538C36.2289 26.7851 36.9651 25.732 37.0875 25.1809C37.2063 24.6463 36.752 23.6921 36.1362 24.308C35.6184 24.8258 35.7766 26.732 36.705 25.838C37.0456 25.51 37.3355 24.255 36.5677 24.2099C36.1016 24.1825 36.2146 24.5305 36.2146 24.9062C36.2146 25.4109 36.4807 25.2857 36.705 25.6222C36.955 25.9972 37.4291 24.4854 36.9208 24.7395" stroke="#FF5959" stroke-width="1.85369" stroke-linecap="round"/>
<path d="M43.4529 24.563C43.3628 23.8423 42.6024 24.9497 42.531 25.0927C42.3088 25.537 42.3088 26.2372 42.531 26.6815C43.1959 28.0113 45.4991 26.5783 44.1787 25.073C43.4977 24.2967 42.7772 23.7442 42.2563 24.9161C42.0689 25.3379 42.3479 26.3175 42.9625 26.1127C43.7239 25.8589 44.4754 24.3848 43.8452 23.8176C42.9734 23.033 42.1279 24.2019 42.2269 25.0927C42.3691 26.3725 43.6639 26.4091 44.1493 25.3575C44.3877 24.8408 44.3534 24.0334 43.6294 24.0334C42.9235 24.0334 42.6824 25.3447 43.0214 25.8773C43.5281 26.6735 44.5122 26.3491 44.5122 25.4457C44.5122 22.7631 42.328 26.0512 43.7373 26.5933C46.2994 27.5787 44.7433 23.1633 43.9825 25.4457" stroke="#8CD6FF" stroke-width="1.85369" stroke-linecap="round"/>
</svg>
