<svg width="320" height="320" viewBox="0 0 320 320" fill="none" xmlns="http://www.w3.org/2000/svg">
<rect width="320" height="320" fill="white"/>
<rect width="86.5993" height="18.9486" transform="matrix(0.615662 -0.788011 0.783759 0.621066 23.1059 290.348)" fill="#D9D9D9"/>
<rect width="92.7697" height="18.9792" transform="matrix(0.87462 -0.48481 0.489289 0.872122 76.2176 221.976)" fill="#D9D9D9"/>
<rect width="114.743" height="18.9257" transform="matrix(0.463172 -0.886268 0.882994 0.469385 150 184.693)" fill="#D9D9D9"/>
<rect x="21" y="24" width="7" height="271" fill="#D9D9D9"/>
<rect width="7" height="271" transform="matrix(0 -1 -1 0 292 302)" fill="#D9D9D9"/>
<path d="M225.191 51.3086L232.507 97.4982L188.848 80.739L225.191 51.3086Z" fill="#D9D9D9"/>
<path d="M35 181V177H28V181H35Z" fill="#D9D9D9"/>
<path d="M48 181V177H41V181H48Z" fill="#D9D9D9"/>
<path d="M61 181V177H54V181H61Z" fill="#D9D9D9"/>
<path d="M74 181V177H67V181H74Z" fill="#D9D9D9"/>
<path d="M87 181V177H80V181H87Z" fill="#D9D9D9"/>
<path d="M100 181V177H93V181H100Z" fill="#D9D9D9"/>
<path d="M113 181V177H106V181H113Z" fill="#D9D9D9"/>
<path d="M126 181V177H119V181H126Z" fill="#D9D9D9"/>
<path d="M139 181V177H132V181H139Z" fill="#D9D9D9"/>
<path d="M152 181V177H145V181H152Z" fill="#D9D9D9"/>
<path d="M165 181V177H158V181H165Z" fill="#D9D9D9"/>
<path d="M166 288H162V295H166V288Z" fill="#D9D9D9"/>
<path d="M166 275H162V282H166V275Z" fill="#D9D9D9"/>
<path d="M166 262H162V269H166V262Z" fill="#D9D9D9"/>
<path d="M166 249H162V256H166V249Z" fill="#D9D9D9"/>
<path d="M166 236H162V243H166V236Z" fill="#D9D9D9"/>
<path d="M166 223H162V230H166V223Z" fill="#D9D9D9"/>
<path d="M166 210H162V217H166V210Z" fill="#D9D9D9"/>
<path d="M166 197H162V204H166V197Z" fill="#D9D9D9"/>
<path d="M166 184H162V191H166V184Z" fill="#D9D9D9"/>
<path d="M166 171H162V178H166V171Z" fill="#D9D9D9"/>
</svg>
