<svg width="460" height="168" viewBox="0 0 460 168" fill="none" xmlns="http://www.w3.org/2000/svg">
<rect width="460" height="168" fill="white"/>
<path d="M17 112C19.8211 111.647 24.334 96.221 25.4444 94C30.255 84.3788 31.6853 72.416 34 62C34.7009 58.8461 36.4229 56.1083 37.2222 53C38.1878 49.245 38.5519 44.9707 40.2222 41.4444C41.7866 38.1419 41.8852 31.4069 44 38C45.8045 43.6259 47.7189 49.2417 49.4444 54.8889C50.7603 59.1954 51.0775 64.8361 53.4444 68.5556C57.6364 75.143 57.1086 84.1061 60.5556 91C63.797 97.483 69 105.789 69 113" stroke="black" stroke-width="3" stroke-linecap="round"/>
<path d="M29 86C36.031 86 42.51 81 49.4444 81C51.9106 81 65.3988 78 57 78" stroke="black" stroke-width="3" stroke-linecap="round"/>
<path d="M107 73C104.471 73 102.316 72.1286 100 72C96.3624 71.7979 94.9902 73.9494 92 75.4444C83.8983 79.4953 81.5624 84.1145 78.7778 92.7778C76.2457 100.655 82.9283 104.409 89 107.444C91.7327 108.811 94.3995 107.664 97.0555 107C103.014 105.51 108.574 100.026 113.222 96.2222C114.927 94.8277 115.349 94.2382 113 96" stroke="black" stroke-width="3" stroke-linecap="round"/>
<path d="M138 71C126.813 71 116 77.7478 116 89.7778C116 97.0458 123.122 100.438 129 103.222C136.315 106.687 139.891 103.055 146 100" stroke="black" stroke-width="3" stroke-linecap="round"/>
<path d="M163 71C157.764 71.5818 155.884 83.0226 155 87C153.612 93.2452 152.928 103.656 162.222 104C172.205 104.37 180.479 91.4763 177.5 81.9444C175.801 76.5085 165.931 66.604 161 74" stroke="black" stroke-width="3" stroke-linecap="round"/>
<path d="M190 77C190 86.6828 187.988 98.141 195.778 105.222C199.053 108.2 204.931 107.239 208 104C212.094 99.6783 211 89.6166 211 84.1111C211 81.3148 211 72.9259 211 75.7222C211 80.2671 211.581 88.6755 214.556 92.5C216.174 94.5812 219.734 99 222.5 99C225.23 99 230.821 93.7265 227 95" stroke="black" stroke-width="3" stroke-linecap="round"/>
<path d="M246 107C251.504 106.312 237.254 73.1111 257.111 73.1111C265.711 73.1111 269.404 84.6835 269.944 91.4444C270.295 95.8295 268.446 103.169 271 107" stroke="black" stroke-width="3" stroke-linecap="round"/>
<path d="M293 67C293.373 69.9827 294 72.6731 294 76C294 81.8012 291.621 95.4418 295.556 100.5C301.278 107.857 315.804 95.7053 312 90" stroke="black" stroke-width="3" stroke-linecap="round"/>
<path d="M288 84C283.733 84 296.362 82.2403 300.444 81C305.401 79.4942 315.956 77 305 77" stroke="black" stroke-width="3" stroke-linecap="round"/>
<path d="M329 86C333.74 85.526 337.527 80.4727 340.611 77.3889C342.544 75.4557 340.019 79.4887 339.778 80C337.89 83.9925 337.093 88.0714 336.556 92.4444C336.042 96.6261 334.84 107.175 342.444 105.111C346.129 104.111 353 99.3593 353 95" stroke="black" stroke-width="3" stroke-linecap="round"/>
<path d="M367 86C367 91.8897 369.168 109.443 369 103.556C368.854 98.4568 363.781 79 372.444 79C381.493 79 384.553 81.8545 386.778 91C388.006 96.0506 388 100.85 388 106" stroke="black" stroke-width="3" stroke-linecap="round"/>
<path d="M423 69C414.018 69 406 76.7374 406 85.7778C406 91.2486 408.843 93 414.222 93C421.024 93 422.837 86.539 424.222 81C425.333 76.5575 424 73.4693 424 69.2222C424 64.7351 424.971 77.4217 425 79C425.219 91.0191 427 102.949 427 115C427 118.189 427.283 121.319 424 122.778C422.229 123.565 416.782 123.607 415.778 122C414.386 119.773 411.188 119.384 411 116C410.829 112.927 411.793 109.624 412.778 106.778C415.279 99.5508 424.221 96.7785 430.222 93C432.239 91.7304 447.942 83.4855 442 82" stroke="black" stroke-width="3" stroke-linecap="round"/>
<path d="M343 64C340.008 64 339 65.4846 339 68.5C339 74.6865 349.99 64.3544 345.444 63.0556C338.223 60.9923 337.37 72.4711 343.444 69C344.623 68.3268 344.889 61.6927 342 63.2222C338.59 65.0274 342.856 71.331 344.778 65.7778C346.329 61.2978 342.823 59.9713 340.222 63.2222C339.616 63.9798 338.912 66.2974 340.5 65.9444C342.139 65.5802 341.96 63.0792 341 65" stroke="#FFBB38" stroke-width="3" stroke-linecap="round"/>
</svg>
