<svg width="519" height="147" viewBox="0 0 519 147" fill="none" xmlns="http://www.w3.org/2000/svg">
<rect width="519" height="147" fill="white"/>
<path d="M48 80C60.1996 80 69.771 79.426 80.3889 72.5556C86.8435 68.3791 90.5323 64.7238 85 58.5C75.4132 47.7149 55.4964 53.0758 49 64.4444C46.2609 69.2379 44.0139 71.5921 42.7778 77C40.6993 86.0932 43.5758 93.6215 53 97C65.1236 101.346 72.77 99.1536 85 95C89.1054 93.6057 93.3499 91.8465 97 89.5C97.9658 88.8791 102.09 84.9104 101 86" stroke="black" stroke-width="3" stroke-linecap="round"/>
<path d="M126 53C129.537 48.8734 117.235 59.7736 114.278 64.3333C111.437 68.7131 106.648 81.752 110.222 86.7778C115.847 94.688 131.254 89.5327 138.889 89.0556C146.009 88.6105 147.276 84.5155 148 78" stroke="black" stroke-width="3" stroke-linecap="round"/>
<path d="M166 59C168.302 51.1085 153.002 61.8199 151.444 65.2222C149.104 70.3347 149.936 77.2357 151 82.5556C152.402 89.5671 157.183 91.7684 164.111 92.2778C174.766 93.0612 189.343 82.6284 187.778 70.5C186.647 61.7353 171.407 58.5933 166 64" stroke="black" stroke-width="3" stroke-linecap="round"/>
<path d="M198 64C200.997 70.3268 202 77.8305 202 84.7778C202 89.9599 202.398 74.3285 203.778 69.3333C205.769 62.1225 216.197 55.2979 223.778 56.8889C236.368 59.5314 233.925 77.3684 233 86" stroke="black" stroke-width="3" stroke-linecap="round"/>
<path d="M258 61C244.776 62.4693 236.684 86.0798 251.444 91C260.664 94.0731 277.561 93.233 279.333 81.3333C280.83 71.2813 263.87 53.303 258 67" stroke="black" stroke-width="3" stroke-linecap="round"/>
<path d="M293 67C292.723 66.8268 294.699 81.3816 295.5 83.9444C295.996 85.5328 296.287 87.7277 295.778 84.3333C295.067 79.5915 293.532 74.934 293.056 70.1667C292.342 63.027 300.167 53.7781 306.056 62.6111C308.358 66.0648 309.625 69.3135 310.944 73.3333C313.589 81.3876 312 78.0445 312 73C312 66.3937 312.838 59.7673 320 57.7778C327.107 55.8036 329.479 63.652 331.778 69.2222C333.638 73.7288 332.464 80.1967 335 84" stroke="black" stroke-width="3" stroke-linecap="round"/>
<path d="M347 69C351.057 65.3488 355.249 62.0633 359.222 58.2222C360.155 57.3203 362.355 55.6861 363.556 55C364.17 54.6489 365 52.7369 365 53.4444C365 56.0484 363.651 59.0929 363 61.5556C361.51 67.1954 359.893 73.1158 362 78.7778C363.068 81.6478 363.026 83.5256 366 84.7778C368.16 85.6874 375.716 85.8427 377.5 84.3333C381.699 80.7801 385.201 68.4402 378 67" stroke="black" stroke-width="3" stroke-linecap="round"/>
<path d="M401 55C403.768 53.5235 401.075 54.9843 400 56C397.821 58.0581 396.063 59.6519 394.667 62.5556C392.866 66.3019 393.334 74.8799 394.778 78.7778C397.62 86.4527 405.86 83.4058 411.778 82.2222C414.688 81.6402 415.278 81.8556 417 79.2222C417.299 78.765 419.379 75.6209 418 77" stroke="black" stroke-width="3" stroke-linecap="round"/>
<path d="M399 54C401.819 54 423.588 44.2352 420 55" stroke="black" stroke-width="3" stroke-linecap="round"/>
<path d="M425 81C433.572 84.8097 454.3 81.6846 447.333 68C445.621 64.636 441.819 61.8404 438.556 60.1667C436.726 59.2283 432.678 58.8685 431.556 56.9444C430.327 54.8383 429.221 53.4103 431.556 51.5C436.242 47.6655 447.429 45 453.5 45C458.355 45 473.018 43.2143 460 49" stroke="black" stroke-width="3" stroke-linecap="round"/>
<path d="M366 40C365.649 37.1925 360.153 39.4069 360 42C359.722 46.73 363.94 44.0655 366 42.7778C370.297 40.0921 365.988 35.1324 361.444 40.7778C357.653 45.4885 365 46.1714 365 41.5C365 38.4151 359 39.6975 359 43.5C359 48.8153 369.601 42.481 366.5 40C365.149 38.9188 366.948 37 364.5 37C363.063 37 360.634 37.5226 362.556 39.4444C363.243 40.1315 366.253 38.5166 365.444 39.0556C364.45 39.7186 364.335 41.8327 366 41" stroke="#FFBB38" stroke-width="3" stroke-linecap="round"/>
</svg>
