<svg width="405" height="201" viewBox="0 0 405 201" fill="none" xmlns="http://www.w3.org/2000/svg">
<rect width="405" height="201" fill="white"/>
<path d="M38 136C38 116.568 33.6644 97.7834 29.5556 79C28.5054 74.1993 28 68.0178 28 63.1111C28 58.2808 33.8247 53.9866 37 51.0556C46.2913 42.4789 59.2129 42.2192 71 46C72.5826 46.5076 81.0685 53 77 53" stroke="black" stroke-width="3" stroke-linecap="round"/>
<path d="M21 100C32.2185 100 43.4866 97.9368 54.4444 95.9444C56.1685 95.631 59.7263 94.0726 61 93C63.5715 90.8345 67.0892 92.2835 61 90" stroke="black" stroke-width="3" stroke-linecap="round"/>
<path d="M91 96C83.1209 96 80.7578 106.455 79.7778 112.444C78.9488 117.51 77.6852 121.422 82 124.778C86.5941 128.351 95.1029 135.841 101.056 131.278C110.518 124.024 114.508 106.507 103.944 98.0556C100.488 95.2903 80.7052 92.5578 85 99" stroke="black" stroke-width="3" stroke-linecap="round"/>
<path d="M114 88C132.236 88 127.419 102.734 130.222 115C131.442 120.338 131.212 126.412 133.5 131.444C134.048 132.651 134 136.714 134 135.389C134 132.285 131.567 128.945 130.556 126.056C128.404 119.908 129 113.411 129 107C129 100.918 133.924 96.5921 137.444 92.1111C140.678 87.996 145.605 87.0728 150 85.2222C152.62 84.119 161.474 88 156 88" stroke="black" stroke-width="3" stroke-linecap="round"/>
<path d="M158 134C158.995 126.043 166.329 117.67 168.778 109.778C170.811 103.226 172 95.4047 172 88.5556C172 86.7037 172 84.8519 172 83C172 79.5438 173 86.81 173 87.7778C173 93.3234 175.543 102.543 179.5 106.5C184.391 111.391 186.178 104.536 187.889 99.7778C189.651 94.8788 188 92.1548 188 87.5556C188 86.6067 187 81.5069 187 83.2222C187 86.1884 188.413 90.2575 190 92.7778C192.129 96.1599 195.726 105 200.5 105C203.485 105 210.269 104.537 208 100" stroke="black" stroke-width="3" stroke-linecap="round"/>
<path d="M217 84C217 90.1916 220 96.5423 220 103C220 109.124 221.907 116.143 225 121.556C228.2 127.155 233.691 130 240 130C248.618 130 252.836 116.272 253 109.222C253.185 101.248 253.468 92.9564 253 85C252.585 77.9445 252.044 87.1257 252.5 90.5C253.229 95.8973 255 102.223 255 107.5C255 113.519 255.398 118.142 256.944 123.556C258.185 127.899 269 132.533 269 126" stroke="black" stroke-width="3" stroke-linecap="round"/>
<path d="M278 126C284.252 126 290.8 116.073 294.778 111.778C299.672 106.492 302 97.4261 302 90.5C302 89.0737 304.635 76.1128 300.444 81.5C296.443 86.6449 295.742 91.6681 293.778 97.7778C291.89 103.65 293 111.074 293 117.222C293 120.948 294.744 129.633 297.556 132.444C302.55 137.439 307.476 128.936 309.5 124.889C312.79 118.308 319.177 109.407 320 102C320.302 99.2797 322.37 97.0246 321.5 101.722C320.468 107.294 320.204 114.269 321.778 119.778C322.663 122.877 322.531 127.786 324.556 130.389C326.763 133.226 331.782 126.949 332.444 125.444C334.705 120.307 335.463 114.407 336.778 109C337.936 104.238 339.427 101.975 341.889 97.6667C343.727 94.4508 342 105.074 342 108.778C342 112.582 341.859 116.42 342 120.222C342.366 130.095 353.596 131.175 358.778 124C363.214 117.858 363 94.0904 363 101.667C363 108.512 361.673 119.455 365.556 125.556C366.476 127.002 370.159 133.102 372 133C375.115 132.827 379 126.75 379 124" stroke="black" stroke-width="3" stroke-linecap="round"/>
<path d="M321 85C319.149 85.2313 316.536 88.6277 317.056 90.4444C317.305 91.3192 326.198 92.4975 323.222 88.7778C319.55 84.1875 318.1 89.4111 320.5 89.9444C322.634 90.4187 324.533 85 320 85C318.217 85 314.71 90.5679 316.5 92C318.581 93.6647 320.1 88.3448 320.444 88C321.444 87 323 88.9983 323 86.5C323 85.4831 320.573 81.7447 320.056 83.5556C319.642 85.0044 320.522 87.0095 321.778 85C323.088 82.9029 323 86.0957 323 85" stroke="#FFBB38" stroke-width="3" stroke-linecap="round"/>
<path d="M340 84C333.645 84.7061 339.261 94.3381 342.5 87.5C346.527 78.999 336.909 85.4643 340.444 89C345.414 93.9696 348.503 82.1111 343.5 82.1111C340.599 82.1111 337.902 89.0492 342 87" stroke="#FF5959" stroke-width="3" stroke-linecap="round"/>
<path d="M366 87C363.473 87 359.621 89.5098 362.556 92.4444C365.304 95.1924 368.879 89.0629 369 87C369.552 77.6166 356.301 90.6293 367 90C369.334 89.8627 370.288 83 367.5 83C363.473 83 362.094 86.8067 364.778 89.2222C366.731 90.9798 367.021 82.8171 363.5 85.5556C358.328 89.5785 364 94.9211 364 88" stroke="#8CD6FF" stroke-width="3" stroke-linecap="round"/>
</svg>
