<svg width="590" height="129" viewBox="0 0 590 129" fill="none" xmlns="http://www.w3.org/2000/svg">
<rect width="590" height="129" fill="white"/>
<path d="M23 108C23.2982 105.614 26.5317 102.48 27.7778 100.444C31.9744 93.59 32.6649 84.5642 34.2222 76.7778C35.3407 71.1854 36.7903 64.8843 37 59.2222C37.1767 54.4501 39.735 49.7696 40 45C40.1996 41.4067 40.9327 36.5917 41.7778 33C43.0786 27.4714 43 21.6518 43 16C43 11.9123 42 24.1345 42 28.2222C42 34.1184 39.4845 51 49 51C54.3338 51 60.7232 47.452 62.7778 42.2222C64.9501 36.6927 64.5283 30.0612 66.7778 25C67.3652 23.6783 67 19.2203 67 20.6667C67 24.1051 66 27.3018 66 30.7778C66 37.3599 65.8172 43.9761 66 50.5556C66.144 55.7399 68.7193 60.9474 69 66C69.2217 69.9913 70.9706 72.195 75.2222 70.7778C80.4654 69.0301 82.7329 63.074 83 58C83.1343 55.4485 87.4014 48.699 83 52" stroke="black" stroke-width="3" stroke-linecap="round"/>
<path d="M112 63C103.719 63 93.5282 82.3967 102.556 86.5C108.42 89.1656 111.954 88.0457 116.5 83.5C120.342 79.6576 122.393 75.6978 125.222 70.8889C129.204 64.1199 132.669 58.2417 136.778 51.5556C138.456 48.8244 141.064 46.5267 141.944 43.4444C142.509 41.4669 143.713 40 141 40" stroke="black" stroke-width="3" stroke-linecap="round"/>
<path d="M110 64C116.498 61.4328 123.811 57.7838 130.5 61.5C134.386 63.6591 134.47 66.8456 136.5 70.5C138.262 73.6724 138.479 77.6872 140.222 81C141.954 84.2895 144.846 87.5386 146 91" stroke="black" stroke-width="3" stroke-linecap="round"/>
<path d="M154 57C162.215 57 173 53.9384 180.778 51C183.577 49.9423 185.714 49.5635 188.5 48.9444C191.407 48.2985 195.433 47.7762 190 47" stroke="black" stroke-width="3" stroke-linecap="round"/>
<path d="M174 40C174.198 39.8305 172.355 47.138 172.222 48.8889C171.677 56.1044 171.659 63.6169 172.778 70.7778C173.84 77.5772 176.545 82 183.389 82C188.41 82 193.584 77.8839 195.944 73.5556C197.865 70.0345 200.728 66.7879 196 66" stroke="black" stroke-width="3" stroke-linecap="round"/>
<path d="M211 33C216.741 33.6379 219.532 39.6063 220.5 44.4444C221.52 49.5439 221.231 55.0268 221.778 60.2222C222.088 63.1693 223 66.5926 223 69.5C223 76.7764 223 65.6402 223 63.5556C223 59.9723 224.978 58.0277 227 55.5C228.45 53.6877 231.838 54 234 54C239.42 54 241.919 62.5773 243.222 66.7778C244.703 71.5481 246 77.0313 246 82C246 85.002 247.085 91.2552 245 85" stroke="black" stroke-width="3" stroke-linecap="round"/>
<path d="M263 72C271.82 72 284.348 66.3138 281.944 55.5C281.477 53.3965 277.146 53.6897 275.5 54.0556C273.036 54.6031 270.635 61.4955 269.556 63.5C266.078 69.9577 264.973 82.2887 271.778 87C275.323 89.4543 281.811 87.1697 285 84.7778C287.797 82.6799 293.608 75 287 75" stroke="black" stroke-width="3" stroke-linecap="round"/>
<path d="M304 81C304 80.2939 305 87.8287 305 81.7778C305 75.6798 305.777 69.8025 306 63.7778C306.291 55.9152 316.723 52.2514 319.222 61C320.022 63.7986 321.138 66.5123 321.944 69.3333C322.529 71.3782 323.127 65.2469 323.778 63.2222C325.177 58.8705 328.216 55 332.778 55C340.15 55 341.699 62.0023 342 68.7778C342.067 70.2803 343.045 82.09 342 80" stroke="black" stroke-width="3" stroke-linecap="round"/>
<path d="M372 64C363.777 64 360.408 71.0061 359.056 78.4444C358.123 83.5752 362.355 85.1366 367 85C371.222 84.8758 373.007 80.8409 374.5 77.5556C375.772 74.7574 375.627 68.5721 374.944 65.5C373.86 60.6207 373.452 57.1932 374.778 65C376.063 72.5686 376.9 81.2924 386.111 82.3889C392.506 83.1502 393.907 79.5205 395 74.0556C395.564 71.2344 396.481 70.654 394 69" stroke="black" stroke-width="3" stroke-linecap="round"/>
<path d="M407 51C407 43.9181 404.527 67.7906 410.222 72C416.064 76.3182 426 72.1011 426 65" stroke="black" stroke-width="3" stroke-linecap="round"/>
<path d="M402 61C410.07 60.193 434.11 57 426 57" stroke="black" stroke-width="3" stroke-linecap="round"/>
<path d="M436 69C440.917 69 443.189 63.8665 447.389 62C448.118 61.6761 446.051 73.346 445.778 75.7778C445.13 81.5323 443.985 83.9422 450.5 84.9444C456.577 85.8794 461.952 75.4273 459 71" stroke="black" stroke-width="3" stroke-linecap="round"/>
<path d="M482 60C479.774 60.2783 474.757 66.9336 473.778 69C471.805 73.1655 471 76.9475 471 81.5C471 84.5033 476.109 86 478.5 86C483.109 86 487.292 81.073 491 82" stroke="black" stroke-width="3" stroke-linecap="round"/>
<path d="M498 88C502.675 92.1553 517.252 85.9491 513.778 79C511.144 73.7325 502.693 73.3079 498 71.2222C490.473 67.877 497.888 62.1029 502.778 60.2222C506.485 58.7963 520.18 52.9213 519 60" stroke="black" stroke-width="3" stroke-linecap="round"/>
<path d="M450 49C449.765 50.8777 447.113 49.3179 446.222 51C445.056 53.2032 447.299 55.7226 449.5 54.5C452.508 52.829 452.481 48 448.5 48C442.489 48 446.536 55.795 448.778 53.7778C454.686 48.4603 443.965 49.4824 449 52" stroke="#8CD6FF" stroke-width="3" stroke-linecap="round"/>
</svg>
