<svg width="317" height="165" viewBox="0 0 317 165" fill="none" xmlns="http://www.w3.org/2000/svg">
<rect width="317" height="165" fill="white"/>
<path d="M29 35C29 9.33117 28 137.669 28 112" stroke="black" stroke-width="3" stroke-linecap="round"/>
<path d="M26 37C35.2919 27.7081 49.5088 23.1911 61.2222 31C67.6037 35.2543 70 43.1126 70 50.5C70 55.4455 66.5122 65.6099 62 68.2222C52.5762 73.6781 44.4556 76.953 36 68C34.0165 65.8998 31.6998 60.3991 31.0556 57.5C30.4841 54.9286 30.5163 50.2581 28 49" stroke="black" stroke-width="3" stroke-linecap="round"/>
<path d="M75 65C82.676 65 85.8128 57.4286 87.7778 69C89.0462 76.4695 88 82.4586 88 89.7778C88 92.3519 88 94.9259 88 97.5C88 101.791 87.9251 96.8195 88.2222 95.2222C89.3421 89.203 88.9912 81.2913 95.7778 78.7778C102.836 76.1636 103.647 77.9123 105.222 85C106.704 91.6678 106 98.9416 106 105.778C106 112.519 106 132.741 106 126" stroke="black" stroke-width="3" stroke-linecap="round"/>
<path d="M129 75C129 81.4571 127.455 91.0102 132.222 95.7778C138.226 101.781 140.574 93.7667 143.5 88.5C146.013 83.9773 143 77.0615 143 72.5C143 60.7219 145 95.9996 145 107.778C145 114.843 143.57 120.231 141.778 127C140.311 132.541 130.631 134.419 128 128.5C125.283 122.388 129.391 114.715 135.5 112C143.454 108.465 149.637 105.363 156 99" stroke="black" stroke-width="3" stroke-linecap="round"/>
<path d="M155 97C160.559 103.254 161.556 113.721 173 110.778C177.995 109.493 181 104.327 181 99.5556C181 94.3682 177.697 91.8621 172.778 90.2222C170.558 89.4823 145.968 87.4232 153 80C157.279 75.4828 162.445 74 168.5 74C170.06 74 178.909 75 174 75" stroke="black" stroke-width="3" stroke-linecap="round"/>
<path d="M190 91C192.139 90.7624 195.438 86.4506 196.889 85C198.5 83.3889 201.316 77.5926 200.944 83.1667C200.381 91.6133 197.673 99.7232 198 108.222C198.381 118.122 215.039 109.098 211 99" stroke="black" stroke-width="3" stroke-linecap="round"/>
<path d="M236 82C232.113 85.4551 225.226 85.5937 222.222 91C219.846 95.2768 217.474 100.137 219.778 105C222.515 110.778 227.776 112.687 233.778 113.778C236.184 114.215 250.693 110.347 248 109" stroke="black" stroke-width="3" stroke-linecap="round"/>
<path d="M261 107C261 112.036 263.196 115.766 268.5 116.944C272.702 117.878 282.552 117.729 285 113.444C287.296 109.426 285.334 102.067 281.778 99.2222C278.127 96.3016 271.153 98.6234 267 96.7778C261.738 94.439 260 92.0853 260 86.5C260 80.4941 261.416 76.6669 267.444 74.9444C271.534 73.7759 277.019 73.1148 281 75.2222C284.344 76.9928 289.305 82.5418 287 86" stroke="black" stroke-width="3" stroke-linecap="round"/>
<path d="M202 68C201.926 68.5922 196.067 70.806 199.167 73.3889C204.482 77.8184 204.15 57.9612 198.556 63.5556C195.994 66.1171 199.178 70 202 70C205.038 70 206.627 64.1683 204 62.7778C200.179 60.7547 198.501 69.4008 200.5 71C204.595 74.2758 208.552 65.2291 204.444 64.0556C202.135 63.3958 198.589 73.7173 199.611 73.9444C201.898 74.4527 204.819 72.5744 205 70.2222C205.33 65.9303 200.14 66.5801 199 70" stroke="#FF5959" stroke-width="3" stroke-linecap="round"/>
</svg>
